<svg width="26" height="20" viewBox="0 0 26 20" fill="none" xmlns="http://www.w3.org/2000/svg">
<path d="M21.6667 0H4.33333C1.95 0 0 2 0 4.44444V15.5556C0 18 1.95 20 4.33333 20H21.6667C24.05 20 26 18 26 15.5556V4.44444C26 2 24.05 0 21.6667 0ZM23.4 6.44445L14.8417 12.3333C14.3 12.6667 13.65 12.8889 13 12.8889C12.35 12.8889 11.7 12.6667 11.1583 12.3333L2.6 6.44445C2.16667 6.11111 2.05833 5.44444 2.38333 4.88889C2.70833 4.44444 3.35833 4.33333 3.9 4.66667L12.4583 10.5556C12.7833 10.7778 13.325 10.7778 13.65 10.5556L22.2083 4.66667C22.75 4.33333 23.4 4.44444 23.725 5C23.9417 5.44444 23.8333 6.11111 23.4 6.44445Z" fill="url(#paint0_linear_566_1524)"/>
<defs>
<linearGradient id="paint0_linear_566_1524" x1="13" y1="0" x2="13" y2="20" gradientUnits="userSpaceOnUse">
<stop stop-color="#68DDB5"/>
<stop offset="1" stop-color="#F6FBA4"/>
</linearGradient>
</defs>
</svg>
