<svg width="1920" height="446" viewBox="0 0 1920 446" fill="none" xmlns="http://www.w3.org/2000/svg">
<g style="mix-blend-mode:soft-light">
<path d="M1920 55.043H0V55.3322H1920V55.043Z" fill="#95E6DA"/>
<path d="M1920 20.7715H760.51V21.0608H1920V20.7715Z" fill="#95E6DA"/>
<path d="M475.449 81.8135H0V82.9814H475.449V81.8135Z" fill="#95E6DA"/>
<path d="M1920 136.521H0V137.109H1920V136.521Z" fill="#95E6DA"/>
<path d="M1920 194.938H0V195.526H1920V194.938Z" fill="#95E6DA"/>
<path d="M1920 240.508H0V240.797H1920V240.508Z" fill="#95E6DA"/>
<path d="M1920 299.78H0V300.369H1920V299.78Z" fill="#95E6DA"/>
<path d="M1920 324.197H0V324.786H1920V324.197Z" fill="#95E6DA"/>
<path d="M1920 408.614H0V409.203H1920V408.614Z" fill="#95E6DA"/>
<path d="M1920 435.819H0V436.408H1920V435.819Z" fill="#95E6DA"/>
<path d="M482.121 87.5049H481.478V445.992H482.121V87.5049Z" fill="#95E6DA"/>
<path d="M512.243 21.9689H0V21.381H511.933L531.016 0.481445H741.963V1.06081H531.326L512.243 21.9689Z" fill="#95E6DA"/>
</g>
</svg>
