<svg width="12" height="12" viewBox="0 0 12 12" fill="none" xmlns="http://www.w3.org/2000/svg">
<path d="M9.14072 2.15299C9.00111 2.15299 8.86463 2.19438 8.74855 2.27195C8.63247 2.34951 8.54199 2.45975 8.48857 2.58874C8.43514 2.71772 8.42116 2.85965 8.4484 2.99658C8.47563 3.13351 8.54286 3.25928 8.64158 3.358C8.7403 3.45672 8.86608 3.52395 9.00301 3.55119C9.13993 3.57842 9.28186 3.56444 9.41085 3.51102C9.53983 3.45759 9.65007 3.36712 9.72764 3.25103C9.8052 3.13495 9.8466 2.99848 9.8466 2.85887C9.8466 2.67166 9.77223 2.49211 9.63985 2.35973C9.50747 2.22735 9.32793 2.15299 9.14072 2.15299V2.15299ZM11.8466 3.57651C11.8352 3.08845 11.7437 2.60557 11.576 2.1471C11.4264 1.75483 11.1936 1.39962 10.8937 1.10593C10.6024 0.804412 10.2463 0.573089 9.85248 0.429456C9.39522 0.256609 8.9118 0.163109 8.42307 0.152985C7.79954 0.117691 7.59954 0.117691 5.99954 0.117691C4.39954 0.117691 4.19954 0.117691 3.57601 0.152985C3.08728 0.163109 2.60386 0.256609 2.1466 0.429456C1.75347 0.574543 1.39774 0.805668 1.10542 1.10593C0.803909 1.39721 0.572585 1.75324 0.428952 2.1471C0.256106 2.60436 0.162605 3.08778 0.152482 3.57651C0.117187 4.20004 0.117188 4.40004 0.117188 6.00004C0.117188 7.60004 0.117187 7.80004 0.152482 8.42357C0.162605 8.91231 0.256106 9.39572 0.428952 9.85298C0.572585 10.2468 0.803909 10.6029 1.10542 10.8942C1.39774 11.1944 1.75347 11.4255 2.1466 11.5706C2.60386 11.7435 3.08728 11.837 3.57601 11.8471C4.19954 11.8824 4.39954 11.8824 5.99954 11.8824C7.59954 11.8824 7.79954 11.8824 8.42307 11.8471C8.9118 11.837 9.39522 11.7435 9.85248 11.5706C10.2463 11.427 10.6024 11.1957 10.8937 10.8942C11.195 10.6016 11.428 10.246 11.576 9.85298C11.7437 9.39451 11.8352 8.91163 11.8466 8.42357C11.8466 7.80004 11.8819 7.60004 11.8819 6.00004C11.8819 4.40004 11.8819 4.20004 11.8466 3.57651V3.57651ZM10.7878 8.35298C10.7835 8.72638 10.7159 9.09634 10.5878 9.4471C10.4939 9.7031 10.343 9.93441 10.1466 10.1236C9.9558 10.318 9.72497 10.4685 9.47013 10.5647C9.11936 10.6928 8.74941 10.7605 8.37601 10.7647C7.78778 10.7942 7.57013 10.8 6.02307 10.8C4.47601 10.8 4.25836 10.8 3.67013 10.7647C3.28242 10.772 2.89636 10.7123 2.52895 10.5883C2.28529 10.4871 2.06504 10.337 1.88189 10.1471C1.68665 9.95813 1.53768 9.72663 1.4466 9.47063C1.30299 9.11484 1.22333 8.73648 1.21131 8.35298C1.21131 7.76475 1.17601 7.5471 1.17601 6.00004C1.17601 4.45298 1.17601 4.23534 1.21131 3.6471C1.21394 3.26537 1.28363 2.88707 1.41719 2.52946C1.52074 2.28117 1.6797 2.05984 1.88189 1.8824C2.06061 1.68014 2.28147 1.51951 2.52895 1.41181C2.88751 1.28242 3.26542 1.2148 3.6466 1.21181C4.23483 1.21181 4.45248 1.17651 5.99954 1.17651C7.5466 1.17651 7.76425 1.17651 8.35248 1.21181C8.72588 1.21609 9.09584 1.28372 9.4466 1.41181C9.71391 1.51102 9.95383 1.67231 10.1466 1.8824C10.3394 2.06309 10.49 2.284 10.5878 2.52946C10.7185 2.88765 10.7862 3.2658 10.7878 3.6471C10.8172 4.23534 10.8231 4.45298 10.8231 6.00004C10.8231 7.5471 10.8172 7.76475 10.7878 8.35298ZM5.99954 2.9824C5.40296 2.98356 4.82011 3.16153 4.32463 3.49382C3.82916 3.82611 3.44329 4.29781 3.2158 4.84931C2.9883 5.40081 2.92938 6.00738 3.04648 6.59236C3.16358 7.17733 3.45144 7.71448 3.8737 8.13591C4.29596 8.55735 4.83366 8.84417 5.41887 8.96013C6.00407 9.07609 6.61052 9.01599 7.16158 8.78742C7.71264 8.55885 8.18359 8.17207 8.51491 7.67595C8.84623 7.17982 9.02307 6.59663 9.02307 6.00004C9.02385 5.60305 8.94613 5.20981 8.79439 4.84296C8.64264 4.47611 8.41987 4.14287 8.13887 3.86243C7.85788 3.58198 7.52422 3.35985 7.15707 3.20883C6.78992 3.0578 6.39653 2.98085 5.99954 2.9824V2.9824ZM5.99954 7.95887C5.61212 7.95887 5.2334 7.84398 4.91128 7.62875C4.58915 7.41351 4.33808 7.10758 4.18982 6.74965C4.04156 6.39172 4.00277 5.99787 4.07835 5.6179C4.15394 5.23792 4.3405 4.88889 4.61444 4.61495C4.88839 4.341 5.23742 4.15444 5.61739 4.07886C5.99737 4.00328 6.39122 4.04207 6.74915 4.19033C7.10708 4.33859 7.413 4.58965 7.62824 4.91178C7.84348 5.23391 7.95836 5.61262 7.95836 6.00004C7.95836 6.25728 7.9077 6.512 7.80926 6.74965C7.71082 6.98731 7.56653 7.20325 7.38464 7.38514C7.20274 7.56703 6.9868 7.71132 6.74915 7.80976C6.51149 7.9082 6.25678 7.95887 5.99954 7.95887V7.95887Z" fill="white"/>
</svg>
