<svg width="20" height="20" viewBox="0 0 20 20" fill="none" xmlns="http://www.w3.org/2000/svg">
<path d="M19.0868 14.5114C18.2574 13.6591 15.8998 12.0625 14.3545 12.0625C13.9966 12.0625 13.6841 12.142 13.4285 12.3068C12.6729 12.7898 12.0707 13.1648 11.781 13.1648C11.6219 13.1648 11.4515 13.0227 11.0765 12.6989L11.014 12.642C9.97441 11.7386 9.75285 11.5057 9.34949 11.0852L9.24723 10.9773C9.17338 10.9034 9.11089 10.8352 9.0484 10.7727C8.69617 10.4091 8.44052 10.1477 7.53723 9.125L7.49746 9.07955C7.0657 8.59091 6.78165 8.27273 6.76461 8.03977C6.74756 7.8125 6.9464 7.44318 7.45202 6.75568C8.06557 5.92614 8.08829 4.90341 7.52587 3.71591C7.07706 2.77841 6.34421 1.88068 5.69656 1.09091L5.63975 1.02273C5.08301 0.340909 4.43537 0 3.71387 0C2.91284 0 2.24816 0.431818 1.89593 0.659091C1.86752 0.676136 1.83912 0.698864 1.81071 0.715909C1.02104 1.21591 0.447256 1.90341 0.231376 2.60227C-0.0924454 3.65341 -0.308326 5.01705 1.24261 7.85227C2.58334 10.3068 3.79909 11.9545 5.73065 13.9375C7.54859 15.8011 8.3553 16.4034 10.1619 17.7102C12.173 19.1648 14.1045 20 15.4566 20C16.7122 20 17.7007 20 19.1096 18.3011C20.5866 16.517 19.9731 15.4261 19.0868 14.5114Z" fill="url(#paint0_linear_566_1525)"/>
<defs>
<linearGradient id="paint0_linear_566_1525" x1="10" y1="0" x2="10" y2="20" gradientUnits="userSpaceOnUse">
<stop stop-color="#66DCB6"/>
<stop offset="1" stop-color="#F4FAA4"/>
</linearGradient>
</defs>
</svg>
