<svg width="13" height="11" viewBox="0 0 13 11" fill="none" xmlns="http://www.w3.org/2000/svg">
<path d="M8.88449 1.88316C8.43741 1.88309 8.00817 2.05853 7.68914 2.37173C7.37011 2.68493 7.18678 3.11086 7.17861 3.55787L7.16214 4.48434C7.16117 4.53408 7.1497 4.58306 7.12848 4.62806C7.10725 4.67306 7.07676 4.71306 7.03899 4.74544C7.00121 4.77783 6.95702 4.80186 6.90931 4.81596C6.8616 4.83006 6.81145 4.83392 6.76214 4.82728L5.8439 4.70257C4.63567 4.53787 3.47802 3.9814 2.36743 3.0561C2.01567 5.00316 2.70273 6.35198 4.35743 7.39257L5.38508 8.03845C5.43391 8.06914 5.47447 8.11132 5.50322 8.16131C5.53198 8.2113 5.54804 8.26757 5.55002 8.32521C5.55199 8.38284 5.53981 8.44008 5.51454 8.49192C5.48928 8.54376 5.45169 8.58862 5.40508 8.62257L4.46861 9.30669C5.02567 9.3414 5.55449 9.31669 5.99331 9.22963C8.76861 8.67551 10.6139 6.58728 10.6139 3.14257C10.6139 2.8614 10.0186 1.88316 8.88449 1.88316ZM6.00214 3.5361C6.0124 2.96907 6.18972 2.41767 6.51188 1.95094C6.83404 1.4842 7.28673 1.12288 7.81326 0.912199C8.3398 0.701521 8.91679 0.650854 9.47199 0.766541C10.0272 0.882228 10.5359 1.15913 10.9345 1.56257C11.3527 1.55963 11.7086 1.66551 12.5045 1.18316C12.3074 2.14787 12.2104 2.56669 11.7904 3.14257C11.7904 7.63787 9.02743 9.82375 6.2239 10.3832C4.30155 10.7667 1.50625 10.1367 0.705078 9.30022C1.11331 9.26845 2.77214 9.09022 3.73096 8.38845C2.91978 7.85375 -0.30904 5.95375 1.81273 0.845513C2.80861 2.00845 3.81861 2.80022 4.84214 3.22022C5.52331 3.49963 5.68978 3.49316 6.00214 3.5361Z" fill="white"/>
</svg>
