<svg width="8" height="11" viewBox="0 0 8 11" fill="none" xmlns="http://www.w3.org/2000/svg">
<path d="M6.83019 4.20585H4.76402V3.49232C4.76402 2.81142 4.80685 2.66111 4.88781 2.50986L4.88803 2.50945C4.94806 2.3968 5.0285 2.31636 5.14115 2.25633L5.14156 2.25611C5.29281 2.17515 5.44312 2.13232 6.12402 2.13232H6.83019H7.08019V1.88232V0.930111V0.73588L6.89199 0.687869C6.66515 0.630001 6.40781 0.602905 6.12402 0.602905C5.18626 0.602905 4.80673 0.70085 4.42035 0.907006C4.0449 1.10585 3.73782 1.41287 3.53891 1.78828C3.33261 2.17478 3.2346 2.55425 3.2346 3.49232V4.20585H1.42578H1.17578V4.45585V5.48526V5.73526H1.42578H3.2346V10.1176V10.3676H3.4846H4.51402H4.76402V10.1176V5.73526H6.57284H6.76803L6.81538 5.54589L7.07273 4.51648L7.15039 4.20585H6.83019Z" fill="white" stroke="white" stroke-width="0.5"/>
</svg>
