<svg width="13" height="11" viewBox="0 0 13 11" fill="none" xmlns="http://www.w3.org/2000/svg">
<path d="M6.44141 0.441177C6.97578 0.441177 7.52391 0.454927 8.05516 0.477427L8.68266 0.507427L9.28328 0.543052L9.84578 0.581177L10.3595 0.621177C10.9171 0.663851 11.4417 0.901769 11.8411 1.29308C12.2405 1.68438 12.4892 2.20401 12.5433 2.76055L12.5683 3.02618L12.6152 3.59493C12.6589 4.1843 12.6914 4.8268 12.6914 5.44118C12.6914 6.05555 12.6589 6.69805 12.6152 7.28743L12.5683 7.85618C12.5602 7.94743 12.552 8.03555 12.5433 8.1218C12.4892 8.67844 12.2404 9.19815 11.8409 9.58947C11.4413 9.98079 10.9165 10.2186 10.3589 10.2612L9.84641 10.3006L9.28391 10.3393L8.68266 10.3749L8.05516 10.4049C7.51755 10.4283 6.97952 10.4404 6.44141 10.4412C5.9033 10.4404 5.36526 10.4283 4.82766 10.4049L4.20016 10.3749L3.59953 10.3393L3.03703 10.3006L2.52328 10.2612C1.96575 10.2185 1.44113 9.98059 1.0417 9.58928C0.642277 9.19797 0.39364 8.67834 0.339531 8.1218L0.314531 7.85618L0.267656 7.28743C0.219867 6.67314 0.194434 6.05731 0.191406 5.44118C0.191406 4.8268 0.223906 4.1843 0.267656 3.59493L0.314531 3.02618C0.322656 2.93493 0.330781 2.8468 0.339531 2.76055C0.393619 2.20411 0.642167 1.68456 1.04146 1.29327C1.44076 0.901972 1.96524 0.663991 2.52266 0.621177L3.03578 0.581177L3.59828 0.543052L4.19953 0.507427L4.82703 0.477427C5.36484 0.454073 5.90309 0.441987 6.44141 0.441177V0.441177ZM6.44141 1.69118C5.92578 1.69118 5.39516 1.70493 4.87891 1.72618L4.26766 1.75555L3.68078 1.78993L3.12953 1.82743L2.62453 1.8668C2.35911 1.88563 2.10893 1.99783 1.91834 2.18351C1.72774 2.36918 1.60905 2.61634 1.58328 2.88118C1.51016 3.6368 1.44141 4.57743 1.44141 5.44118C1.44141 6.30493 1.51016 7.24555 1.58328 8.00118C1.63641 8.54618 2.06891 8.96993 2.62453 9.01555L3.12953 9.0543L3.68078 9.0918L4.26766 9.1268L4.87891 9.15618C5.39516 9.17743 5.92578 9.19118 6.44141 9.19118C6.95703 9.19118 7.48766 9.17743 8.00391 9.15618L8.61516 9.1268L9.20203 9.09243L9.75328 9.05493L10.2583 9.01555C10.5237 8.99672 10.7739 8.88452 10.9645 8.69885C11.1551 8.51317 11.2738 8.26601 11.2995 8.00118C11.3727 7.24555 11.4414 6.30493 11.4414 5.44118C11.4414 4.57743 11.3727 3.6368 11.2995 2.88118C11.2738 2.61634 11.1551 2.36918 10.9645 2.18351C10.7739 1.99783 10.5237 1.88563 10.2583 1.8668L9.75328 1.82805L9.20203 1.79055L8.61516 1.75555L8.00391 1.72618C7.48337 1.70378 6.96242 1.69211 6.44141 1.69118V1.69118ZM5.19141 3.92555C5.19137 3.86447 5.20625 3.8043 5.23476 3.75027C5.26327 3.69625 5.30455 3.65001 5.355 3.61557C5.40546 3.58114 5.46356 3.55955 5.52426 3.55268C5.58495 3.54582 5.64641 3.55388 5.70328 3.57618L5.75391 3.60118L8.37891 5.11618C8.43118 5.14634 8.4754 5.18867 8.50781 5.23958C8.54023 5.29048 8.55988 5.34846 8.56509 5.40858C8.5703 5.46871 8.56093 5.5292 8.53777 5.58493C8.5146 5.64065 8.47833 5.68997 8.43203 5.72868L8.37891 5.76618L5.75391 7.2818C5.70101 7.31243 5.64142 7.32967 5.58034 7.33201C5.51926 7.33435 5.45853 7.32172 5.40344 7.29523C5.34836 7.26873 5.30058 7.22917 5.26428 7.17999C5.22798 7.13081 5.20425 7.0735 5.19516 7.01305L5.19141 6.9568V3.92555V3.92555Z" fill="white"/>
</svg>
